<svg xmlns="http://www.w3.org/2000/svg" viewBox="0 0 64 64" fill="none">
  <!-- Rounded square background with gradient -->
  <defs>
    <linearGradient id="bg" x1="0" y1="0" x2="64" y2="64" gradientUnits="userSpaceOnUse">
      <stop offset="0%" stop-color="#1e40af"/>
      <stop offset="100%" stop-color="#2563eb"/>
    </linearGradient>
  </defs>
  <rect width="64" height="64" rx="16" fill="url(#bg)"/>
  <!-- Brain icon (simplified, white) -->
  <path d="M32 14c-2.5 0-4.7 1.3-6 3.2A7 7 0 0 0 18 24c0 1.5.4 2.9 1.1 4.1A6 6 0 0 0 16 33a6 6 0 0 0 4.5 5.8V42a2 2 0 0 0 2 2h19a2 2 0 0 0 2-2v-3.2A6 6 0 0 0 48 33a6 6 0 0 0-3.1-5.2A7 7 0 0 0 46 24a7 7 0 0 0-8-6.8A7 7 0 0 0 32 14z" fill="none" stroke="white" stroke-width="2.5" stroke-linecap="round" stroke-linejoin="round"/>
  <path d="M32 17v27M26 24h-4M42 24h-4M22 33h4M38 33h4" stroke="white" stroke-width="2" stroke-linecap="round"/>
</svg>
